Coordinates
version=1
nRows=26
nColumns=24
inDegrees=yes

Units are S.I. units (second, meters, Newtons, ...)
Angles are in degrees.

endheader
time	pelvis_tilt	pelvis_list	pelvis_rotation	pelvis_tx	pelvis_ty	pelvis_tz	hip_flexion_r	hip_adduction_r	hip_rotation_r	knee_angle_r	ankle_angle_r	subtalar_angle_r	mtp_angle_r	hip_flexion_l	hip_adduction_l	hip_rotation_l	knee_angle_l	ankle_angle_l	subtalar_angle_l	mtp_angle_l	lumbar_extension	lumbar_bending	lumbar_rotation
      1.61466667	      0.62573793	      8.40754630	     -1.55469635	      0.54095156	      0.99551944	      0.26538669	     20.31083978	     -9.55951778	      3.24225717	    -63.38431752	      7.92101720	    -11.09906541	      0.16955905	      4.89746955	     14.91074064	      1.14871593	    -10.66681113	      2.74930933	    -14.83657407	      1.23253673	      2.44108863	     -6.54127292	      4.02291282
      1.61883333	      0.69858166	      8.30404791	     -1.40661181	      0.54561865	      0.99593051	      0.26511715	     20.72741424	     -9.42164782	      3.21535127	    -62.72105948	      8.30774781	    -11.19017526	     -0.03832149	      4.32897183	     14.84122863	      1.47742932	    -10.37396323	      2.79929071	    -14.94675653	      1.17027941	      2.29303006	     -6.43799820	      3.83080372
      1.62300000	      0.76405695	      8.21016229	     -1.25018663	      0.55028601	      0.99629899	      0.26485000	     21.13672029	     -9.29852309	      3.17750096	    -62.02034785	      8.65530368	    -11.26801417	     -0.25439608	      3.76934785	     14.77728311	      1.80787995	    -10.08073298	      2.83862512	    -15.06949152	      1.10823405	      2.16319020	     -6.35232022	      3.62616699
      1.62716667	      0.84059280	      8.11283599	     -1.09392490	      0.55495157	      0.99665545	      0.26458509	     21.51697908	     -9.17438830	      3.13351128	    -61.27871030	      8.96549431	    -11.34804644	     -0.46111919	      3.20042342	     14.70514732	      2.12818650	     -9.78980944	      2.88876367	    -15.17213943	      1.05213708	      2.01986998	     -6.26294500	      3.43337580
      1.63133333	      0.91233311	      8.01829363	     -0.93326021	      0.55961973	      0.99698471	      0.26433289	     21.88520499	     -9.05372651	      3.08424506	    -60.49836480	      9.23391075	    -11.43595622	     -0.66980805	      2.64082224	     14.62992031	      2.44878923	     -9.50877712	      2.93614437	    -15.27632154	      0.99852837	      1.88204940	     -6.17622459	      3.22883448
      1.63550000	      0.93373063	      7.94086068	     -0.75797104	      0.56424437	      0.99718037	      0.26403696	     22.30792140	     -8.96026746	      3.02768800	    -59.70820199	      9.49241150	    -11.43392326	     -1.49497847	      2.12862813	     14.57935269	      2.86647825	     -9.20771001	      2.91931926	    -15.57257814	      0.79075395	      1.80263368	     -6.10828096	      2.98107338
      1.63966667	      0.99993048	      7.85407546	     -0.59166113	      0.56888651	      0.99741168	      0.26381729	     22.65804121	     -8.85004037	      2.96842719	    -58.87397377	      9.72491155	    -11.54895537	     -1.58253511	      1.61312839	     14.49257849	      3.08400283	     -8.99560530	      3.05469469	    -15.46810550	      0.77567161	      1.67081398	     -6.03138927	      2.89678018
      1.64383333	      1.04279962	      7.76967402	     -0.42800252	      0.57352688	      0.99758117	      0.26358555	     23.02267834	     -8.74315730	      2.91231988	    -58.00956937	      9.89500931	    -11.65766371	     -1.68292461	      1.11135764	     14.41047774	      3.35141413	     -8.75891080	      3.16493658	    -15.47367843	      0.75830610	      1.56095731	     -5.95421387	      2.71907964
      1.64800000	      1.12143389	      7.71539313	     -0.28823792	      0.57815877	      0.99775264	      0.26338148	     23.34840447	     -8.66455924	      2.87955139	    -57.13066955	     10.01851093	    -11.77515608	     -1.90222383	      0.54213999	     14.36082067	      3.66890578	     -8.45122347	      3.19964276	    -15.59443366	      0.71729406	      1.40042583	     -5.92131342	      2.41906646
      1.65216667	      1.12679994	      7.64208210	     -0.10938440	      0.58277777	      0.99780202	      0.26314399	     23.72859424	     -8.57915278	      2.80327948	    -56.21845041	     10.16716873	    -11.84015258	     -1.99234689	      0.10366716	     14.28184843	      3.92273151	     -8.25881281	      3.33798090	    -15.58900578	      0.70554114	      1.34533100	     -5.85119104	      2.31892880
      1.65633333	      1.16348473	      7.60732782	      0.04408109	      0.58740143	      0.99785356	      0.26290905	     24.07614559	     -8.53283818	      2.75476320	    -55.29821689	     10.28478589	    -11.91298585	     -2.60660245	     -0.42306819	     14.25128239	      4.30300055	     -7.94835828	      3.35095892	    -15.84809386	      0.60135925	      1.24753739	     -5.83696031	      1.97875289
      1.66050000	      1.19225999	      7.54555189	      0.20438378	      0.59201167	      0.99786609	      0.26271131	     24.40811276	     -8.45690624	      2.68567914	    -54.33787303	     10.36678396	    -11.99533345	     -2.69304597	     -0.88074501	     14.17250921	      4.50627463	     -7.75813948	      3.50342266	    -15.73452014	      0.59350500	      1.14821401	     -5.78056166	      1.90811228
      1.66466667	      1.24246324	      7.50957677	      0.34544227	      0.59662313	      0.99788092	      0.26253245	     24.70909443	     -8.40204317	      2.64542295	    -53.35690463	     10.42997150	    -12.09275369	     -2.80384177	     -1.37558894	     14.12099546	      4.73938118	     -7.53628940	      3.63368393	    -15.69851445	      0.58218198	      1.03959428	     -5.75283296	      1.72779525
      1.66883333	      1.23141763	      7.48428735	      0.49644788	      0.60121891	      0.99777810	      0.26233037	     25.07353149	     -8.36411966	      2.59714386	    -52.37619474	     10.52645148	    -12.14919307	     -3.52475667	     -1.82498414	     14.08589873	      5.07696325	     -7.27188985	      3.68726778	    -15.88887888	      0.48159366	      0.98335345	     -5.75295735	      1.39653518
      1.67300000	      1.23843357	      7.44040691	      0.64225976	      0.60582231	      0.99766777	      0.26216399	     25.39580951	     -8.30785044	      2.52969106	    -51.35706041	     10.55821538	    -12.19856972	     -3.59250352	     -2.25054879	     14.01570878	      5.25132395	     -7.09069370	      3.84445059	    -15.75821222	      0.47853131	      0.91325138	     -5.72002325	      1.34947229
      1.67716667	      1.24333021	      7.42389397	      0.77161121	      0.61042788	      0.99751602	      0.26201443	     25.71708405	     -8.27534325	      2.48723304	    -50.33202936	     10.59983172	    -12.24693030	     -3.66833771	     -2.68218579	     13.97500506	      5.44586213	     -6.89124498	      3.99637442	    -15.68570369	      0.47414512	      0.84559511	     -5.71460558	      1.20945399
      1.68133333	      1.24069927	      7.39488661	      0.89866700	      0.61502892	      0.99734410	      0.26187678	     26.02815592	     -8.22830698	      2.43985216	    -49.27865032	     10.63640089	    -12.27696613	     -3.74357840	     -3.10468654	     13.91851174	      5.64406817	     -6.69232361	      4.14214632	    -15.63262350	      0.46933364	      0.78654169	     -5.70210297	      1.05086411
      1.68550000	      1.23783397	      7.39640409	      1.00534117	      0.61962020	      0.99712694	      0.26175895	     26.33925368	     -8.20563352	      2.42465910	    -48.22192475	     10.65688235	    -12.29750460	     -3.87886872	     -3.53567047	     13.89508423	      5.85598690	     -6.47045643	      4.26806402	    -15.61314528	      0.45434853	      0.71887163	     -5.71945000	      0.80181815
      1.68966667	      1.19272784	      7.38035455	      1.12896418	      0.62422974	      0.99684174	      0.26162917	     26.67325676	     -8.17695041	      2.36890008	    -47.14082991	     10.70953353	    -12.26398284	     -3.93775351	     -3.90113570	     13.84953513	      6.03336560	     -6.29298178	      4.41810037	    -15.55131795	      0.45002592	      0.72380979	     -5.71219970	      0.72083955
      1.69383333	      1.16192359	      7.37677789	      1.23334416	      0.62882571	      0.99651819	      0.26152917	     26.98908658	     -8.15459181	      2.33019333	    -46.05554057	     10.74452724	    -12.20615807	     -4.00031209	     -4.28632303	     13.81577000	      6.20947757	     -6.10254654	      4.57560782	    -15.49239330	      0.44382613	      0.68921355	     -5.73142013	      0.58801558
      1.69800000	      1.13947708	      7.38030977	      1.32640236	      0.63342857	      0.99620105	      0.26144764	     27.27911479	     -8.13694162	      2.29748792	    -44.94427007	     10.77787991	    -12.10941154	     -4.06807524	     -4.68162690	     13.78800901	      6.38050978	     -5.90782982	      4.72165812	    -15.43555745	      0.43362003	      0.64817735	     -5.75218687	      0.43397115
      1.70216667	      1.11184840	      7.39307999	      1.40866718	      0.63804557	      0.99584255	      0.26137170	     27.56560468	     -8.12714334	      2.27292771	    -43.82465099	     10.81524122	    -11.96477839	     -4.15806350	     -5.07545801	     13.77048366	      6.55206494	     -5.70631658	      4.86916113	    -15.38234664	      0.41357026	      0.61594731	     -5.77546882	      0.25567577
      1.70633333	      1.03504936	      7.40041543	      1.49592821	      0.64266397	      0.99539228	      0.26130994	     27.89191778	     -8.11276593	      2.23625401	    -42.69230969	     10.87048516	    -11.82806808	     -4.19974070	     -5.40112907	     13.74587341	      6.70115796	     -5.53339227	      5.02951087	    -15.32104182	      0.40318858	      0.64954788	     -5.80212848	      0.17991808
      1.71050000	      0.98145995	      7.41419987	      1.56775777	      0.64728609	      0.99494009	      0.26126267	     28.17885189	     -8.10078592	      2.21078341	    -41.53938252	     10.90976451	    -11.62100249	     -4.24480973	     -5.75502979	     13.72781624	      6.84882412	     -5.35379732	      5.19135423	    -15.25319296	      0.38480639	      0.65122093	     -5.82239078	      0.05639220
      1.71466667	      0.91239103	      7.41856917	      1.63834525	      0.65194449	      0.99446483	      0.26123244	     28.46431858	     -8.08068617	      2.16501047	    -40.36969270	     10.95651085	    -11.40722491	     -4.27033362	     -6.09489932	     13.69757408	      6.98385479	     -5.17116168	      5.35714103	    -15.18708642	      0.36948421	      0.67592263	     -5.84496042	     -0.03432473
      1.71883333	      0.85132881	      7.42680465	      1.69486094	      0.65661712	      0.99396280	      0.26121464	     28.72825538	     -8.06055117	      2.12834047	    -39.18411407	     11.00403436	    -11.16703064	     -4.28338137	     -6.44512335	     13.67156581	      7.10830263	     -4.98454095	      5.52798953	    -15.11400078	      0.35510557	      0.70444874	     -5.86184882	     -0.11913949
